<svg xmlns="http://www.w3.org/2000/svg" xmlns:xlink="http://www.w3.org/1999/xlink" width="500" zoomAndPan="magnify" viewBox="0 0 375 374.999991" height="500" preserveAspectRatio="xMidYMid meet" version="1.0"><defs><g/><clipPath id="9d63e8df03"><path d="M 92.113281 90.816406 L 279.613281 90.816406 L 279.613281 278 L 92.113281 278 Z M 92.113281 90.816406 " clip-rule="nonzero"/></clipPath></defs><rect x="-37.5" width="450" fill="#ffffff" y="-37.499999" height="449.999989" fill-opacity="1"/><rect x="-37.5" width="450" fill="#fffef9" y="-37.499999" height="449.999989" fill-opacity="1"/><g clip-path="url(#9d63e8df03)"><path fill="#122620" d="M 185.699219 277.988281 C 133.996094 277.988281 92.113281 235.816406 92.113281 184.402344 C 92.113281 132.988281 133.996094 90.816406 185.699219 90.816406 C 237.402344 90.816406 279.285156 132.699219 279.285156 184.402344 C 279.285156 236.105469 237.113281 277.988281 185.699219 277.988281 Z M 185.699219 96.59375 C 137.175781 96.59375 97.890625 135.875 97.890625 184.402344 C 97.890625 232.929688 137.175781 272.210938 185.699219 272.210938 C 234.226562 272.210938 273.507812 232.929688 273.507812 184.402344 C 273.507812 135.875 233.9375 96.59375 185.699219 96.59375 Z M 185.699219 96.59375 " fill-opacity="1" fill-rule="nonzero"/></g><path stroke-linecap="butt" transform="matrix(1.465975, 0, 0, 1.465975, 69.32406, 91.156364)" fill="none" stroke-linejoin="miter" d="M 33.899257 91.017617 C 33.899257 90.697864 33.91258 90.18093 33.939226 89.461485 C 33.979195 88.758029 34.037816 88.051907 34.117755 87.348451 C 34.197693 86.64233 34.264308 86.202669 34.3176 86.032134 C 33.931232 86.085426 33.712734 86.178688 33.659442 86.309254 C 33.60615 86.455807 33.472919 86.722268 33.259751 87.108636 C 32.926675 87.812093 32.801438 88.531537 32.881376 89.26164 C 32.961315 89.994407 33.29972 90.580621 33.899257 91.017617 Z M 40.44087 15.113581 C 40.44087 13.530804 40.560778 12.019971 40.800593 10.583747 C 41.05373 9.1342 41.178967 7.644684 41.178967 6.115198 C 41.178967 5.518326 41.232259 4.785559 41.338843 3.922226 C 41.445428 3.045569 41.525366 2.254181 41.578658 1.548059 C 41.698566 0.791311 41.743864 0.237072 41.717218 -0.106662 C 41.690572 -0.466385 41.757187 -0.738175 41.917064 -0.924697 C 42.07694 -1.124543 42.428668 -1.391004 42.974913 -1.72408 C 43.414573 -1.497588 43.779625 -1.24445 44.072732 -0.964666 C 44.379162 -0.698205 44.531044 -0.213247 44.531044 0.49021 C 44.531044 3.098862 44.4591 5.331803 44.312546 7.194365 C 44.179316 9.043603 44.006117 11.164631 43.792948 13.55745 C 44.232608 13.450865 44.789511 13.25102 45.468987 12.957913 C 46.145797 12.654147 46.732011 12.419662 47.224963 12.259785 C 50.880806 10.783592 54.819098 9.342039 59.034508 7.932461 C 63.249919 6.50956 67.318776 5.443717 71.243744 4.74026 C 72.1204 4.513769 73.689854 4.215332 75.949442 3.842287 C 78.211695 3.455919 80.745738 3.117514 83.55157 2.824407 C 86.357403 2.517977 89.037999 2.366094 91.590694 2.366094 C 94.316588 2.366094 96.616145 2.611238 98.49203 3.104191 C 100.381237 3.597143 101.324508 4.521762 101.324508 5.878048 C 101.324508 7.407533 100.767605 8.569303 99.64847 9.368685 C 98.531999 10.15208 97.428851 10.59707 96.339026 10.703654 C 96.602822 9.946905 97.037153 9.174169 97.634026 8.390774 C 98.233563 7.591391 98.593285 6.834643 98.713192 6.115198 C 97.993748 6.011279 97.348913 5.878048 96.776022 5.718172 C 96.205796 5.558295 95.459705 5.478357 94.54308 5.478357 C 91.763893 5.478357 89.349758 5.505003 87.300674 5.558295 C 85.267578 5.611587 83.330408 5.750147 81.497157 5.976639 C 79.674565 6.189807 77.753382 6.488243 75.730944 6.874612 C 73.72183 7.247657 71.355657 7.759262 68.629763 8.409426 C 68.256718 8.51601 67.412037 8.777142 66.09572 9.187492 C 64.792727 9.600506 63.209949 10.093459 61.347388 10.663685 C 59.49815 11.236576 57.576967 11.862759 55.58384 12.539569 C 53.601371 13.219044 51.725487 13.890526 49.956187 14.554013 C 48.189552 15.206842 46.718688 15.790391 45.548925 16.30999 C 44.379162 16.816266 43.71301 17.234609 43.553133 17.567685 L 40.939152 43.219871 C 40.88586 43.925992 40.78727 44.744027 40.640716 45.673975 C 40.507486 46.606588 40.44087 47.477915 40.44087 48.287956 C 41.040407 48.181372 41.978349 47.869612 43.254697 47.350014 C 44.544367 46.83308 45.594223 46.465364 46.406929 46.252195 C 47.390169 45.921784 48.666517 45.540745 50.235971 45.117072 C 51.818748 44.677411 53.414849 44.264397 55.024272 43.880694 C 56.633696 43.494325 57.928696 43.246517 58.914601 43.142597 C 60.057718 42.982721 61.008983 42.902782 61.765732 42.902782 C 63.188633 42.902782 64.033313 43.174572 64.299774 43.720817 C 64.579558 44.264397 64.579558 45.082432 64.299774 46.172257 C 64.033313 46.225549 63.841462 46.265518 63.721554 46.292164 C 63.61497 46.31881 63.375155 46.358779 63.004775 46.412072 C 62.884867 45.708615 62.551791 45.356887 62.005546 45.356887 C 60.982337 45.356887 59.626051 45.535415 57.936689 45.895138 C 56.247328 46.238872 54.446052 46.673203 52.530199 47.190137 C 50.627668 47.709736 48.807741 48.255981 47.065087 48.826207 C 45.322433 49.399098 43.904861 49.897379 42.815037 50.323717 C 42.428668 50.496916 42.018319 50.662122 41.578658 50.821998 C 41.152321 50.981875 40.694008 51.088459 40.201056 51.141752 L 37.589739 79.746323 C 38.239904 79.693031 38.972671 79.421241 39.782712 78.928288 C 40.608741 78.438 41.320191 78.083607 41.917064 77.873103 C 44.15267 76.887198 46.478873 76.05584 48.901002 75.37903 C 51.320467 74.699555 53.761248 74.169298 56.220682 73.782929 C 56.713634 73.676345 57.691545 73.524462 59.154415 73.324617 C 60.630608 73.138094 62.410567 72.930255 64.49962 72.706428 C 66.601996 72.493259 68.821615 72.320059 71.163806 72.186829 C 73.503332 72.053598 75.789566 71.986983 78.025172 71.986983 C 81.190727 71.986983 83.903298 72.200152 86.162886 72.626489 C 88.425139 73.063485 89.554933 73.889514 89.554933 75.099246 C 89.554933 75.632168 89.54161 75.962579 89.514964 76.095809 C 89.488318 76.242363 89.40305 76.343618 89.256497 76.39691 C 89.123266 76.450202 88.923421 76.6687 88.65696 77.055068 C 88.377176 76.828577 88.172001 76.594091 88.038771 76.356941 C 87.90554 76.117126 87.63375 75.869318 87.220736 75.618845 C 86.810386 75.37903 86.005675 75.17119 84.806601 75.000655 C 83.013319 74.680902 80.564544 74.521026 77.465605 74.521026 C 73.809762 74.521026 69.951409 74.680902 65.895875 75.000655 C 61.840341 75.331067 57.864745 75.903958 53.966423 76.713999 C 50.070765 77.540027 46.433575 78.683144 43.054851 80.146014 C 42.508607 80.372506 42.058288 80.564358 41.698566 80.724234 C 41.352167 80.884111 40.933823 81.102609 40.44087 81.382393 C 40.003875 81.595561 39.564214 81.795407 39.124554 81.981929 C 38.698217 82.181775 38.346488 82.360304 38.066704 82.52018 C 37.643032 82.799964 37.341931 83.343544 37.168731 84.15625 C 37.011519 84.979614 36.918258 85.850941 36.891612 86.770231 C 36.864966 87.700179 36.824997 88.54486 36.771705 89.301609 C 36.611828 91.150847 36.300069 92.427194 35.833762 93.133316 C 35.367456 93.850095 34.837199 94.209818 34.237662 94.209818 C 33.691417 94.209818 33.121191 93.938027 32.521654 93.391783 C 31.924782 92.848203 31.431829 92.22202 31.045461 91.515898 C 30.659093 90.812442 30.467241 90.212905 30.467241 89.722617 C 30.467241 88.13984 30.64577 86.922113 31.005492 86.072103 C 31.365214 85.232752 31.770235 84.59591 32.223218 84.15625 C 32.689525 83.71659 33.139843 83.330221 33.579504 82.99981 C 34.019164 82.680057 34.3176 82.275036 34.477477 81.782084 C 34.530769 81.568915 34.597384 81.009347 34.677322 80.106045 C 34.757261 79.216066 34.837199 78.211509 34.917137 77.095038 C 35.007734 75.975902 35.082343 74.939369 35.135635 73.982775 C 35.188927 73.036839 35.215573 72.399998 35.215573 72.066921 C 35.215573 71.414092 35.242219 71.003743 35.295512 70.830543 C 35.348804 70.670667 35.402096 70.318938 35.455388 69.772694 C 35.455388 69.333033 35.442065 68.909361 35.415419 68.496346 C 35.388773 68.096655 35.402096 67.678311 35.455388 67.238651 L 36.53189 52.697883 L 29.649206 56.207172 C 29.595914 56.207172 29.257509 56.415012 28.631326 56.825361 C 28.007808 57.238376 27.421594 57.44355 26.875349 57.44355 C 26.331769 57.44355 26.057314 57.091822 26.057314 56.388366 C 26.057314 55.948705 26.398384 55.455753 27.075195 54.912172 C 27.767993 54.365928 28.506089 53.859652 29.289484 53.39601 C 30.075544 52.929704 30.632447 52.617945 30.965523 52.458068 L 37.011519 49.604272 C 37.011519 48.181372 37.064812 46.846403 37.168731 45.594037 C 37.275316 44.344335 37.41654 43.036013 37.589739 41.666404 L 39.86265 18.782747 C 39.31907 19.062531 38.772826 19.342315 38.226581 19.622098 C 37.696324 19.888559 37.131427 20.128374 36.53189 20.338878 L 26.795411 25.406963 C 25.758878 26.0065 24.722345 26.616696 23.685813 27.242879 C 22.659938 27.866397 21.628735 28.537878 20.592202 29.257322 C 20.312418 29.417199 20.048622 29.582405 19.795484 29.755604 C 19.55567 29.915481 19.275886 30.102003 18.956133 30.315172 C 18.676349 30.528341 18.471174 30.693546 18.337944 30.813454 C 18.204713 30.920038 17.972892 31.079915 17.639816 31.293083 C 17.426647 31.397003 17.186833 31.511581 16.923036 31.631489 C 16.643253 31.738073 16.371463 31.791365 16.105002 31.791365 C 15.332265 31.791365 14.945897 31.378351 14.945897 30.554987 C 14.945897 30.062034 15.492142 29.382559 16.581967 28.519226 C 17.674456 27.639905 19.049394 26.691305 20.71211 25.66543 C 22.374825 24.628898 24.090833 23.605688 25.860133 22.593137 C 27.626769 21.58325 29.190894 20.6986 30.547179 19.941851 C 31.916788 19.169115 32.846736 18.678827 33.339689 18.465658 Z M 114.223878 69.114535 C 114.223878 68.357787 114.223878 67.545081 114.223878 66.681748 C 114.223878 65.802427 114.330462 65.117623 114.543631 64.627335 C 114.27717 64.627335 113.717602 64.859156 112.867592 65.325462 C 112.02824 65.789104 111.223529 66.268734 110.453457 66.761686 C 109.694043 67.251974 109.262377 67.579721 109.155793 67.736933 C 109.488869 67.843517 109.893889 67.950101 110.373519 68.056686 C 110.866471 68.16327 111.356759 68.277848 111.849712 68.395091 C 112.289372 68.501675 112.721039 68.621583 113.147376 68.754813 C 113.584372 68.888044 113.944094 69.007951 114.223878 69.114535 Z M 119.052148 56.388366 C 121.551551 54.632389 124.165532 52.47672 126.891426 49.924025 C 129.617321 47.358008 132.204655 44.656095 134.650766 41.823616 C 137.096877 38.991137 139.140631 36.353175 140.774036 33.9044 C 142.796474 30.965336 144.619066 27.861068 146.241813 24.588929 C 147.877882 21.316789 148.695917 17.754208 148.695917 13.895855 C 148.695917 11.543006 147.864559 9.541885 146.201844 7.892492 C 144.552451 6.229776 142.55133 5.398419 140.195816 5.398419 C 137.589829 5.398419 135.402186 5.616917 133.632886 6.056577 C 131.863586 6.482914 129.835819 7.266309 127.549585 8.409426 C 126.723556 8.795794 126.299883 9.102224 126.273237 9.328716 C 126.246591 9.541885 126.15333 10.133428 125.993453 11.103345 C 125.766962 12.36637 125.513824 13.597419 125.23404 14.793828 C 124.970244 15.990237 124.703783 17.213292 124.437322 18.465658 C 124.224153 19.662068 124.005655 20.831831 123.779164 21.974948 C 123.565995 23.120729 123.320851 24.317138 123.041067 25.56684 C 122.548115 27.906366 122.124442 30.373793 121.76472 32.966457 C 121.418321 35.561786 121.111891 38.106487 120.84543 40.608554 C 120.738845 41.418595 120.586963 42.561712 120.387117 44.037905 C 120.200595 45.514099 119.99542 47.083553 119.768928 48.746269 C 119.555759 50.395661 119.38256 51.919817 119.249329 53.316072 C 119.118763 54.699004 119.052148 55.722213 119.052148 56.388366 Z M 96.328368 50.083902 C 96.328368 47.95488 96.749376 45.522092 97.586063 42.782875 C 98.436073 40.030334 99.555208 37.17121 100.93814 34.2055 C 102.334395 31.226468 103.903849 28.346026 105.646503 25.56684 C 107.386493 22.787653 109.155793 20.298909 110.951739 18.105936 C 112.747685 15.896976 114.463693 14.162316 116.099762 12.899291 C 117.02971 12.19317 117.733167 11.628273 118.212797 11.2046 C 118.705749 10.76494 119.249329 10.298634 119.848866 9.805681 C 120.461726 9.315393 121.311736 8.68921 122.401561 7.932461 C 124.623844 6.50956 127.229832 5.171927 130.222187 3.922226 C 133.227865 2.672524 136.148276 2.046341 138.980755 2.046341 C 143.169519 2.046341 146.486957 3.216104 148.933067 5.558295 C 151.395165 7.897821 152.62355 11.084693 152.62355 15.113581 C 152.62355 17.732891 152.226523 20.253611 151.427141 22.673075 C 150.643746 25.095204 149.652511 27.368115 148.456102 29.497137 C 147.259693 31.623495 146.033973 33.637939 144.784272 35.540469 C 143.534571 37.336415 142.404777 38.879224 141.39489 40.168894 C 140.382339 41.445241 139.345806 42.654974 138.282627 43.800755 C 137.216784 44.943872 135.980406 46.305487 134.570828 47.888265 L 125.833577 55.967357 C 124.197507 57.44355 122.88652 58.509394 121.903279 59.159558 C 120.920039 59.812387 120.181942 60.342644 119.68899 60.755659 C 119.196037 61.15535 118.884278 61.701595 118.751048 62.391728 C 118.617817 63.071203 118.551202 64.166358 118.551202 65.68252 C 118.551202 66.721717 118.49791 67.566398 118.39399 68.216562 C 118.287406 68.882714 118.234113 69.727395 118.234113 70.750605 C 119.150739 71.467385 120.075358 72.066921 121.005306 72.546551 C 121.937919 73.036839 122.88652 73.641705 123.859102 74.361149 C 129.364183 78.443329 134.797319 82.773318 140.155847 87.348451 C 145.530362 91.923583 151.128705 96.3042 156.953539 100.492964 C 157.553075 100.932625 157.93145 101.231061 158.091326 101.390937 C 158.264526 101.564137 158.349793 102.169003 158.349793 103.2082 C 158.016717 103.258828 157.798219 103.325443 157.691635 103.405381 C 157.585051 103.485319 157.339907 103.525289 156.953539 103.525289 C 156.687078 103.525289 155.85572 103.048324 154.459465 102.089065 C 153.076533 101.145793 151.387172 99.909415 149.394044 98.37993 C 147.411576 96.850444 145.30387 95.201052 143.068264 93.431752 C 140.835322 91.662452 138.679654 89.946444 136.606589 88.286393 C 134.544182 86.623677 132.748236 85.166137 131.21875 83.916435 C 129.689265 82.666734 128.652732 81.822053 128.106488 81.382393 C 127.736107 81.049317 127.083278 80.532382 126.15333 79.826261 C 125.220717 79.122805 124.224153 78.384708 123.160974 77.611972 C 122.111119 76.855223 121.133207 76.175748 120.227241 75.578875 C 119.323938 74.979339 118.657786 74.654256 118.234113 74.600964 C 118.234113 75.197836 118.186151 75.578875 118.092889 75.738752 C 118.012951 75.909287 117.972982 76.348947 117.972982 77.055068 C 117.972982 79.780963 117.959659 82.746672 117.933013 85.952196 C 117.906367 89.168378 117.906367 92.341927 117.933013 95.467513 C 117.959659 98.606421 118.08756 101.484199 118.314052 104.103509 C 118.420636 104.916214 118.551202 105.766224 118.711078 106.658868 C 118.870955 107.56217 118.897601 108.31359 118.791017 108.913127 C 118.684432 109.509999 118.22612 109.8111 117.416079 109.8111 C 116.59005 109.8111 115.945215 109.371439 115.478908 108.492119 C 115.02859 107.628786 114.690184 106.512315 114.463693 105.142706 C 114.250524 103.78642 114.117293 102.382172 114.064001 100.932625 C 114.010709 99.496401 113.984063 98.193407 113.984063 97.023644 C 113.984063 95.851216 113.957417 95.022523 113.904125 94.529571 C 113.730925 92.733624 113.658981 90.48736 113.685627 87.785447 C 113.712273 85.099521 113.765565 82.341652 113.845503 79.509173 C 113.938765 76.674029 113.984063 74.249236 113.984063 72.226798 C 112.94753 71.680553 111.511306 71.216911 109.675391 70.830543 C 107.852799 70.457498 106.158108 70.270975 104.588654 70.270975 C 104.202286 70.270975 103.709333 70.350914 103.112461 70.51079 C 102.512924 70.670667 101.942698 70.750605 101.396453 70.750605 C 100.573089 70.750605 100.080136 70.372231 99.92026 69.612817 C 99.707091 68.682869 100.085465 68.024711 101.058048 67.638342 C 102.041288 67.265297 103.024529 66.833631 104.010434 66.340678 C 105.206843 65.690514 106.291339 65.051008 107.261256 64.427489 C 108.244496 63.801306 109.342315 63.137819 110.552047 62.431697 C 111.151584 62.098621 111.649866 61.786862 112.049557 61.493755 C 112.462572 61.187325 112.966183 60.843591 113.56572 60.457223 C 114.442376 59.857686 114.868713 59.38605 114.842067 59.039651 C 114.815421 58.682593 114.802098 57.877882 114.802098 56.625516 L 115.121851 51.719972 C 115.558847 46.438718 116.158384 41.200097 116.917797 35.998782 C 117.674546 30.786808 118.572519 25.620132 119.609051 20.498755 L 121.663465 12.4996 C 121.279761 12.606184 120.866747 12.838005 120.427086 13.197727 C 119.987426 13.544127 119.609051 13.855886 119.289298 14.13567 C 118.905595 14.522038 118.559196 14.833797 118.252766 15.073612 C 117.959659 15.313427 117.594607 15.625186 117.154947 16.011554 C 114.922005 18.031327 112.726368 20.525401 110.573364 23.49111 C 108.431019 26.456819 106.477861 29.603722 104.708561 32.926488 C 102.939261 36.25192 101.535012 39.577351 100.49848 42.902782 C 99.461947 46.225549 98.942348 49.271196 98.942348 52.039725 C 98.942348 53.356041 99.03561 54.206051 99.222132 54.592419 C 99.421978 54.965465 99.627153 55.149323 99.840322 55.149323 C 100.000198 55.149323 100.173398 55.109353 100.35992 55.03208 C 100.559766 54.952142 100.738295 54.912172 100.898171 54.912172 C 101.495043 54.912172 101.849436 55.143993 101.956021 55.6103 C 102.075928 56.060619 101.916051 56.532254 101.476391 57.025207 C 101.036731 57.518159 100.271988 57.763303 99.182163 57.763303 C 98.372122 57.763303 97.759262 57.464867 97.346248 56.86533 C 96.933234 56.268458 96.661444 55.535691 96.528213 54.672358 C 96.394983 53.793037 96.328368 52.935033 96.328368 52.098346 C 96.328368 51.248336 96.328368 50.576855 96.328368 50.083902 Z M 96.328368 50.083902 " stroke="#fffef9" stroke-width="6.128468" stroke-opacity="1" stroke-miterlimit="4"/><g fill="#122620" fill-opacity="1"><g transform="translate(96.032296, 189.376706)"><g><path d="M 23 35.21875 C 23 34.738281 23.019531 33.976562 23.0625 32.9375 C 23.101562 31.894531 23.179688 30.851562 23.296875 29.8125 C 23.421875 28.78125 23.519531 28.144531 23.59375 27.90625 C 23.039062 27.988281 22.722656 28.128906 22.640625 28.328125 C 22.554688 28.523438 22.359375 28.90625 22.046875 29.46875 C 21.566406 30.5 21.382812 31.550781 21.5 32.625 C 21.625 33.707031 22.125 34.570312 23 35.21875 Z M 32.578125 -76.0625 C 32.578125 -78.375 32.753906 -80.585938 33.109375 -82.703125 C 33.472656 -84.828125 33.65625 -87.003906 33.65625 -89.234375 C 33.65625 -90.109375 33.734375 -91.1875 33.890625 -92.46875 C 34.054688 -93.75 34.175781 -94.90625 34.25 -95.9375 C 34.414062 -97.0625 34.476562 -97.878906 34.4375 -98.390625 C 34.394531 -98.910156 34.492188 -99.3125 34.734375 -99.59375 C 34.972656 -99.875 35.492188 -100.253906 36.296875 -100.734375 C 36.929688 -100.410156 37.46875 -100.050781 37.90625 -99.65625 C 38.34375 -99.257812 38.5625 -98.539062 38.5625 -97.5 C 38.5625 -93.664062 38.460938 -90.390625 38.265625 -87.671875 C 38.066406 -84.960938 37.804688 -81.851562 37.484375 -78.34375 C 38.128906 -78.5 38.945312 -78.796875 39.9375 -79.234375 C 40.9375 -79.671875 41.796875 -80.007812 42.515625 -80.25 C 47.867188 -82.40625 53.640625 -84.519531 59.828125 -86.59375 C 66.015625 -88.675781 71.984375 -90.234375 77.734375 -91.265625 C 79.015625 -91.585938 81.3125 -92.023438 84.625 -92.578125 C 87.9375 -93.140625 91.648438 -93.640625 95.765625 -94.078125 C 99.878906 -94.523438 103.8125 -94.75 107.5625 -94.75 C 111.550781 -94.75 114.921875 -94.390625 117.671875 -93.671875 C 120.429688 -92.953125 121.8125 -91.59375 121.8125 -89.59375 C 121.8125 -87.363281 120.992188 -85.664062 119.359375 -84.5 C 117.722656 -83.34375 116.109375 -82.6875 114.515625 -82.53125 C 114.910156 -83.644531 115.546875 -84.78125 116.421875 -85.9375 C 117.304688 -87.101562 117.828125 -88.203125 117.984375 -89.234375 C 116.941406 -89.398438 116 -89.597656 115.15625 -89.828125 C 114.320312 -90.066406 113.226562 -90.1875 111.875 -90.1875 C 107.800781 -90.1875 104.265625 -90.144531 101.265625 -90.0625 C 98.273438 -89.988281 95.441406 -89.789062 92.765625 -89.46875 C 90.097656 -89.15625 87.285156 -88.71875 84.328125 -88.15625 C 81.367188 -87.601562 77.894531 -86.847656 73.90625 -85.890625 C 73.34375 -85.722656 72.101562 -85.335938 70.1875 -84.734375 C 68.269531 -84.140625 65.953125 -83.421875 63.234375 -82.578125 C 60.523438 -81.742188 57.710938 -80.828125 54.796875 -79.828125 C 51.878906 -78.835938 49.125 -77.863281 46.53125 -76.90625 C 43.9375 -75.945312 41.78125 -75.085938 40.0625 -74.328125 C 38.34375 -73.566406 37.363281 -72.945312 37.125 -72.46875 L 33.296875 -34.859375 C 33.210938 -33.816406 33.070312 -32.617188 32.875 -31.265625 C 32.675781 -29.910156 32.578125 -28.632812 32.578125 -27.4375 C 33.453125 -27.59375 34.828125 -28.050781 36.703125 -28.8125 C 38.585938 -29.570312 40.128906 -30.109375 41.328125 -30.421875 C 42.765625 -30.898438 44.640625 -31.457031 46.953125 -32.09375 C 49.265625 -32.738281 51.597656 -33.335938 53.953125 -33.890625 C 56.316406 -34.453125 58.21875 -34.8125 59.65625 -34.96875 C 61.332031 -35.207031 62.726562 -35.328125 63.84375 -35.328125 C 65.914062 -35.328125 67.148438 -34.925781 67.546875 -34.125 C 67.953125 -33.332031 67.957031 -32.140625 67.5625 -30.546875 C 67.15625 -30.460938 66.875 -30.398438 66.71875 -30.359375 C 66.5625 -30.316406 66.203125 -30.257812 65.640625 -30.1875 C 65.484375 -31.21875 65.003906 -31.734375 64.203125 -31.734375 C 62.679688 -31.734375 60.679688 -31.472656 58.203125 -30.953125 C 55.734375 -30.441406 53.097656 -29.804688 50.296875 -29.046875 C 47.503906 -28.285156 44.832031 -27.484375 42.28125 -26.640625 C 39.726562 -25.804688 37.648438 -25.070312 36.046875 -24.4375 C 35.492188 -24.195312 34.894531 -23.957031 34.25 -23.71875 C 33.613281 -23.476562 32.9375 -23.316406 32.21875 -23.234375 L 28.390625 18.6875 C 29.347656 18.601562 30.425781 18.203125 31.625 17.484375 C 32.820312 16.765625 33.859375 16.25 34.734375 15.9375 C 38.003906 14.5 41.414062 13.28125 44.96875 12.28125 C 48.53125 11.28125 52.109375 10.5 55.703125 9.9375 C 56.421875 9.78125 57.859375 9.5625 60.015625 9.28125 C 62.171875 9 64.785156 8.695312 67.859375 8.375 C 70.929688 8.0625 74.179688 7.804688 77.609375 7.609375 C 81.046875 7.410156 84.40625 7.3125 87.6875 7.3125 C 92.3125 7.3125 96.28125 7.628906 99.59375 8.265625 C 102.90625 8.898438 104.5625 10.097656 104.5625 11.859375 C 104.5625 12.660156 104.539062 13.160156 104.5 13.359375 C 104.46875 13.554688 104.347656 13.691406 104.140625 13.765625 C 103.941406 13.847656 103.644531 14.171875 103.25 14.734375 C 102.851562 14.410156 102.550781 14.066406 102.34375 13.703125 C 102.144531 13.347656 101.742188 12.988281 101.140625 12.625 C 100.546875 12.269531 99.375 11.972656 97.625 11.734375 C 94.988281 11.253906 91.394531 11.015625 86.84375 11.015625 C 81.488281 11.015625 75.835938 11.253906 69.890625 11.734375 C 63.941406 12.210938 58.113281 13.050781 52.40625 14.25 C 46.695312 15.445312 41.363281 17.125 36.40625 19.28125 C 35.613281 19.601562 34.957031 19.882812 34.4375 20.125 C 33.914062 20.363281 33.296875 20.679688 32.578125 21.078125 C 31.941406 21.398438 31.300781 21.703125 30.65625 21.984375 C 30.019531 22.265625 29.503906 22.523438 29.109375 22.765625 C 28.472656 23.160156 28.035156 23.957031 27.796875 25.15625 C 27.554688 26.351562 27.414062 27.628906 27.375 28.984375 C 27.332031 30.335938 27.269531 31.578125 27.1875 32.703125 C 26.945312 35.410156 26.488281 37.285156 25.8125 38.328125 C 25.132812 39.367188 24.359375 39.890625 23.484375 39.890625 C 22.679688 39.890625 21.835938 39.488281 20.953125 38.6875 C 20.078125 37.882812 19.359375 36.960938 18.796875 35.921875 C 18.242188 34.890625 17.96875 34.015625 17.96875 33.296875 C 17.96875 30.984375 18.226562 29.207031 18.75 27.96875 C 19.269531 26.726562 19.867188 25.789062 20.546875 25.15625 C 21.222656 24.519531 21.878906 23.960938 22.515625 23.484375 C 23.160156 23.003906 23.601562 22.40625 23.84375 21.6875 C 23.914062 21.363281 24.007812 20.539062 24.125 19.21875 C 24.25 17.90625 24.367188 16.429688 24.484375 14.796875 C 24.609375 13.160156 24.710938 11.640625 24.796875 10.234375 C 24.878906 8.835938 24.921875 7.898438 24.921875 7.421875 C 24.921875 6.460938 24.957031 5.863281 25.03125 5.625 C 25.113281 5.382812 25.195312 4.867188 25.28125 4.078125 C 25.28125 3.429688 25.257812 2.804688 25.21875 2.203125 C 25.175781 1.609375 25.195312 0.992188 25.28125 0.359375 L 26.828125 -20.96875 L 16.765625 -15.8125 C 16.691406 -15.8125 16.191406 -15.507812 15.265625 -14.90625 C 14.347656 -14.3125 13.492188 -14.015625 12.703125 -14.015625 C 11.898438 -14.015625 11.5 -14.535156 11.5 -15.578125 C 11.5 -16.210938 12 -16.925781 13 -17.71875 C 14 -18.519531 15.078125 -19.257812 16.234375 -19.9375 C 17.390625 -20.625 18.207031 -21.085938 18.6875 -21.328125 L 27.546875 -25.515625 C 27.546875 -27.585938 27.625 -29.539062 27.78125 -31.375 C 27.945312 -33.21875 28.148438 -35.132812 28.390625 -37.125 L 31.734375 -70.671875 C 30.941406 -70.273438 30.144531 -69.875 29.34375 -69.46875 C 28.550781 -69.070312 27.710938 -68.710938 26.828125 -68.390625 L 12.578125 -60.96875 C 11.054688 -60.09375 9.535156 -59.191406 8.015625 -58.265625 C 6.503906 -57.347656 4.988281 -56.375 3.46875 -55.34375 C 3.070312 -55.101562 2.691406 -54.863281 2.328125 -54.625 C 1.972656 -54.382812 1.554688 -54.101562 1.078125 -53.78125 C 0.679688 -53.457031 0.378906 -53.21875 0.171875 -53.0625 C -0.0234375 -52.90625 -0.363281 -52.664062 -0.84375 -52.34375 C -1.15625 -52.1875 -1.507812 -52.023438 -1.90625 -51.859375 C -2.3125 -51.703125 -2.710938 -51.625 -3.109375 -51.625 C -4.234375 -51.625 -4.796875 -52.222656 -4.796875 -53.421875 C -4.796875 -54.140625 -3.992188 -55.132812 -2.390625 -56.40625 C -0.796875 -57.6875 1.21875 -59.085938 3.65625 -60.609375 C 6.09375 -62.128906 8.609375 -63.625 11.203125 -65.09375 C 13.796875 -66.570312 16.085938 -67.867188 18.078125 -68.984375 C 20.078125 -70.109375 21.4375 -70.832031 22.15625 -71.15625 Z M 32.578125 -76.0625 "/></g></g></g><g fill="#122620" fill-opacity="1"><g transform="translate(204.428545, 189.376706)"><g><path d="M 32.34375 3.109375 C 32.34375 1.992188 32.34375 0.800781 32.34375 -0.46875 C 32.34375 -1.75 32.5 -2.75 32.8125 -3.46875 C 32.414062 -3.46875 31.597656 -3.128906 30.359375 -2.453125 C 29.128906 -1.773438 27.953125 -1.078125 26.828125 -0.359375 C 25.710938 0.359375 25.078125 0.835938 24.921875 1.078125 C 25.398438 1.234375 26 1.390625 26.71875 1.546875 C 27.4375 1.710938 28.15625 1.875 28.875 2.03125 C 29.507812 2.195312 30.144531 2.378906 30.78125 2.578125 C 31.414062 2.773438 31.9375 2.953125 32.34375 3.109375 Z M 39.40625 -15.578125 C 43.082031 -18.128906 46.914062 -21.28125 50.90625 -25.03125 C 54.894531 -28.78125 58.6875 -32.734375 62.28125 -36.890625 C 65.875 -41.046875 68.867188 -44.921875 71.265625 -48.515625 C 74.222656 -52.828125 76.898438 -57.378906 79.296875 -62.171875 C 81.691406 -66.960938 82.890625 -72.191406 82.890625 -77.859375 C 82.890625 -81.296875 81.671875 -84.226562 79.234375 -86.65625 C 76.796875 -89.09375 73.863281 -90.3125 70.4375 -90.3125 C 66.601562 -90.3125 63.382812 -89.992188 60.78125 -89.359375 C 58.1875 -88.722656 55.210938 -87.566406 51.859375 -85.890625 C 50.660156 -85.328125 50.039062 -84.882812 50 -84.5625 C 49.96875 -84.25 49.832031 -83.375 49.59375 -81.9375 C 49.269531 -80.09375 48.90625 -78.289062 48.5 -76.53125 C 48.101562 -74.78125 47.707031 -72.988281 47.3125 -71.15625 C 46.988281 -69.394531 46.664062 -67.675781 46.34375 -66 C 46.03125 -64.320312 45.675781 -62.566406 45.28125 -60.734375 C 44.5625 -57.296875 43.941406 -53.679688 43.421875 -49.890625 C 42.898438 -46.097656 42.441406 -42.363281 42.046875 -38.6875 C 41.878906 -37.488281 41.65625 -35.8125 41.375 -33.65625 C 41.101562 -31.5 40.804688 -29.203125 40.484375 -26.765625 C 40.160156 -24.335938 39.898438 -22.101562 39.703125 -20.0625 C 39.503906 -18.03125 39.40625 -16.535156 39.40625 -15.578125 Z M 6.109375 -24.796875 C 6.109375 -27.910156 6.726562 -31.484375 7.96875 -35.515625 C 9.207031 -39.546875 10.84375 -43.738281 12.875 -48.09375 C 14.914062 -52.445312 17.210938 -56.660156 19.765625 -60.734375 C 22.316406 -64.804688 24.910156 -68.457031 27.546875 -71.6875 C 30.179688 -74.925781 32.695312 -77.460938 35.09375 -79.296875 C 36.445312 -80.335938 37.484375 -81.175781 38.203125 -81.8125 C 38.921875 -82.445312 39.71875 -83.125 40.59375 -83.84375 C 41.476562 -84.5625 42.71875 -85.484375 44.3125 -86.609375 C 47.59375 -88.679688 51.425781 -90.632812 55.8125 -92.46875 C 60.207031 -94.300781 64.484375 -95.21875 68.640625 -95.21875 C 74.785156 -95.21875 79.65625 -93.5 83.25 -90.0625 C 86.84375 -86.632812 88.640625 -81.96875 88.640625 -76.0625 C 88.640625 -72.226562 88.0625 -68.535156 86.90625 -64.984375 C 85.75 -61.429688 84.289062 -58.097656 82.53125 -54.984375 C 80.769531 -51.867188 78.972656 -48.910156 77.140625 -46.109375 C 75.304688 -43.472656 73.648438 -41.21875 72.171875 -39.34375 C 70.691406 -37.46875 69.171875 -35.691406 67.609375 -34.015625 C 66.054688 -32.335938 64.242188 -30.34375 62.171875 -28.03125 L 49.34375 -16.171875 C 46.945312 -14.015625 45.03125 -12.457031 43.59375 -11.5 C 42.15625 -10.539062 41.078125 -9.757812 40.359375 -9.15625 C 39.640625 -8.5625 39.179688 -7.765625 38.984375 -6.765625 C 38.785156 -5.765625 38.6875 -4.148438 38.6875 -1.921875 C 38.6875 -0.398438 38.601562 0.835938 38.4375 1.796875 C 38.28125 2.753906 38.203125 3.992188 38.203125 5.515625 C 39.566406 6.546875 40.925781 7.421875 42.28125 8.140625 C 43.632812 8.859375 45.03125 9.738281 46.46875 10.78125 C 54.539062 16.769531 62.507812 23.117188 70.375 29.828125 C 78.238281 36.535156 86.441406 42.960938 94.984375 49.109375 C 95.859375 49.742188 96.414062 50.179688 96.65625 50.421875 C 96.894531 50.660156 97.015625 51.539062 97.015625 53.0625 C 96.535156 53.144531 96.21875 53.242188 96.0625 53.359375 C 95.90625 53.484375 95.546875 53.546875 94.984375 53.546875 C 94.585938 53.546875 93.367188 52.84375 91.328125 51.4375 C 89.296875 50.039062 86.820312 48.222656 83.90625 45.984375 C 80.988281 43.753906 77.894531 41.34375 74.625 38.75 C 71.351562 36.15625 68.195312 33.640625 65.15625 31.203125 C 62.125 28.765625 59.488281 26.628906 57.25 24.796875 C 55.019531 22.960938 53.503906 21.722656 52.703125 21.078125 C 52.140625 20.597656 51.179688 19.835938 49.828125 18.796875 C 48.472656 17.765625 47.015625 16.6875 45.453125 15.5625 C 43.898438 14.445312 42.460938 13.453125 41.140625 12.578125 C 39.828125 11.703125 38.847656 11.222656 38.203125 11.140625 C 38.203125 12.015625 38.140625 12.570312 38.015625 12.8125 C 37.898438 13.050781 37.84375 13.691406 37.84375 14.734375 C 37.84375 18.722656 37.820312 23.070312 37.78125 27.78125 C 37.75 32.5 37.75 37.148438 37.78125 41.734375 C 37.820312 46.328125 38.003906 50.539062 38.328125 54.375 C 38.484375 55.570312 38.679688 56.828125 38.921875 58.140625 C 39.160156 59.460938 39.203125 60.5625 39.046875 61.4375 C 38.890625 62.320312 38.210938 62.765625 37.015625 62.765625 C 35.816406 62.765625 34.875 62.125 34.1875 60.84375 C 33.507812 59.570312 33.007812 57.9375 32.6875 55.9375 C 32.375 53.9375 32.175781 51.878906 32.09375 49.765625 C 32.019531 47.648438 31.984375 45.734375 31.984375 44.015625 C 31.984375 42.296875 31.941406 41.078125 31.859375 40.359375 C 31.617188 37.722656 31.519531 34.429688 31.5625 30.484375 C 31.601562 26.535156 31.679688 22.484375 31.796875 18.328125 C 31.921875 14.171875 31.984375 10.617188 31.984375 7.671875 C 30.460938 6.867188 28.363281 6.1875 25.6875 5.625 C 23.019531 5.070312 20.523438 4.796875 18.203125 4.796875 C 17.648438 4.796875 16.929688 4.914062 16.046875 5.15625 C 15.171875 5.394531 14.332031 5.515625 13.53125 5.515625 C 12.332031 5.515625 11.613281 4.953125 11.375 3.828125 C 11.0625 2.472656 11.625 1.515625 13.0625 0.953125 C 14.5 0.398438 15.9375 -0.234375 17.375 -0.953125 C 19.125 -1.910156 20.71875 -2.847656 22.15625 -3.765625 C 23.59375 -4.691406 25.191406 -5.671875 26.953125 -6.703125 C 27.828125 -7.179688 28.5625 -7.640625 29.15625 -8.078125 C 29.757812 -8.523438 30.5 -9.023438 31.375 -9.578125 C 32.65625 -10.460938 33.273438 -11.160156 33.234375 -11.671875 C 33.191406 -12.191406 33.171875 -13.375 33.171875 -15.21875 L 33.65625 -22.40625 C 34.289062 -30.144531 35.164062 -37.828125 36.28125 -45.453125 C 37.40625 -53.078125 38.726562 -60.644531 40.25 -68.15625 L 43.234375 -79.890625 C 42.679688 -79.734375 42.082031 -79.394531 41.4375 -78.875 C 40.800781 -78.351562 40.242188 -77.894531 39.765625 -77.5 C 39.203125 -76.9375 38.703125 -76.472656 38.265625 -76.109375 C 37.828125 -75.753906 37.289062 -75.300781 36.65625 -74.75 C 33.375 -71.789062 30.15625 -68.132812 27 -63.78125 C 23.851562 -59.425781 20.984375 -54.8125 18.390625 -49.9375 C 15.796875 -45.070312 13.738281 -40.203125 12.21875 -35.328125 C 10.695312 -30.460938 9.9375 -25.992188 9.9375 -21.921875 C 9.9375 -20.003906 10.078125 -18.765625 10.359375 -18.203125 C 10.640625 -17.648438 10.941406 -17.375 11.265625 -17.375 C 11.503906 -17.375 11.757812 -17.429688 12.03125 -17.546875 C 12.3125 -17.671875 12.570312 -17.734375 12.8125 -17.734375 C 13.695312 -17.734375 14.21875 -17.390625 14.375 -16.703125 C 14.53125 -16.023438 14.289062 -15.328125 13.65625 -14.609375 C 13.019531 -13.890625 11.898438 -13.53125 10.296875 -13.53125 C 9.097656 -13.53125 8.195312 -13.96875 7.59375 -14.84375 C 7 -15.726562 6.601562 -16.804688 6.40625 -18.078125 C 6.207031 -19.359375 6.109375 -20.617188 6.109375 -21.859375 C 6.109375 -23.097656 6.109375 -24.078125 6.109375 -24.796875 Z M 6.109375 -24.796875 "/></g></g></g><path fill="#fffef9" d="M 235.320312 273.25 C 231.566406 275.335938 227.699219 277.179688 223.714844 278.78125 C 219.730469 280.382812 215.660156 281.726562 211.503906 282.8125 C 207.351562 283.898438 203.144531 284.71875 198.886719 285.273438 C 194.628906 285.828125 190.351562 286.113281 186.058594 286.128906 C 181.761719 286.140625 177.484375 285.886719 173.222656 285.359375 C 168.960938 284.835938 164.75 284.042969 160.589844 282.988281 C 156.425781 281.929688 152.347656 280.613281 148.351562 279.042969 C 144.355469 277.46875 140.476562 275.652344 136.707031 273.589844 L 147.628906 253.644531 C 150.558594 255.25 153.574219 256.660156 156.679688 257.882812 C 159.785156 259.105469 162.953125 260.128906 166.1875 260.949219 C 169.421875 261.769531 172.695312 262.386719 176.007812 262.792969 C 179.316406 263.203125 182.640625 263.402344 185.980469 263.390625 C 189.316406 263.378906 192.640625 263.15625 195.949219 262.726562 C 199.257812 262.292969 202.527344 261.65625 205.753906 260.8125 C 208.980469 259.96875 212.144531 258.925781 215.242188 257.683594 C 218.335938 256.4375 221.34375 255.003906 224.257812 253.382812 Z M 235.320312 273.25 " fill-opacity="1" fill-rule="nonzero"/><g fill="#122620" fill-opacity="1"><g transform="translate(143.167329, 270.417632)"><g><path d="M 7.046875 -9.375 L 3.015625 -0.171875 L 8.296875 2.15625 L 7.75 3.40625 L 1.0625 0.46875 L 5.640625 -9.984375 Z M 7.046875 -9.375 "/></g></g></g><g fill="#122620" fill-opacity="1"><g transform="translate(164.558439, 278.108108)"><g><path d="M 10.96875 -4.03125 C 11.113281 -4.914062 11.085938 -5.726562 10.890625 -6.46875 C 10.691406 -7.207031 10.328125 -7.816406 9.796875 -8.296875 C 9.273438 -8.785156 8.609375 -9.09375 7.796875 -9.21875 C 6.984375 -9.351562 6.25 -9.273438 5.59375 -8.984375 C 4.945312 -8.691406 4.414062 -8.222656 4 -7.578125 C 3.582031 -6.941406 3.304688 -6.179688 3.171875 -5.296875 C 3.023438 -4.421875 3.050781 -3.609375 3.25 -2.859375 C 3.445312 -2.117188 3.804688 -1.5 4.328125 -1 C 4.859375 -0.507812 5.53125 -0.195312 6.34375 -0.0625 C 7.15625 0.0625 7.882812 -0.0234375 8.53125 -0.328125 C 9.1875 -0.628906 9.722656 -1.101562 10.140625 -1.75 C 10.554688 -2.394531 10.832031 -3.15625 10.96875 -4.03125 Z M 12.546875 -3.78125 C 12.472656 -3.300781 12.332031 -2.796875 12.125 -2.265625 C 11.925781 -1.734375 11.660156 -1.234375 11.328125 -0.765625 C 10.992188 -0.296875 10.582031 0.113281 10.09375 0.46875 C 9.613281 0.832031 9.039062 1.085938 8.375 1.234375 C 7.707031 1.390625 6.957031 1.40625 6.125 1.28125 C 5.289062 1.144531 4.582031 0.898438 4 0.546875 C 3.425781 0.203125 2.960938 -0.210938 2.609375 -0.703125 C 2.265625 -1.203125 2 -1.722656 1.8125 -2.265625 C 1.632812 -2.816406 1.53125 -3.375 1.5 -3.9375 C 1.476562 -4.507812 1.503906 -5.035156 1.578125 -5.515625 C 1.660156 -6.003906 1.800781 -6.507812 2 -7.03125 C 2.195312 -7.5625 2.46875 -8.0625 2.8125 -8.53125 C 3.15625 -9.007812 3.566406 -9.425781 4.046875 -9.78125 C 4.535156 -10.132812 5.109375 -10.390625 5.765625 -10.546875 C 6.421875 -10.703125 7.164062 -10.710938 8 -10.578125 C 8.832031 -10.453125 9.539062 -10.210938 10.125 -9.859375 C 10.71875 -9.503906 11.1875 -9.082031 11.53125 -8.59375 C 11.882812 -8.101562 12.144531 -7.582031 12.3125 -7.03125 C 12.488281 -6.476562 12.59375 -5.921875 12.625 -5.359375 C 12.65625 -4.796875 12.628906 -4.269531 12.546875 -3.78125 Z M 12.546875 -3.78125 "/></g></g></g><g fill="#122620" fill-opacity="1"><g transform="translate(191.01974, 280.333336)"><g><path d="M 5.5 -5.46875 L 5.34375 -6.765625 L 10.3125 -7.34375 L 11.03125 -1.296875 L 10.046875 -1.1875 L 9.5 -2.59375 C 9.175781 -2.03125 8.695312 -1.546875 8.0625 -1.140625 C 7.4375 -0.742188 6.738281 -0.5 5.96875 -0.40625 C 4.976562 -0.289062 4.125 -0.375 3.40625 -0.65625 C 2.695312 -0.945312 2.101562 -1.367188 1.625 -1.921875 C 1.144531 -2.484375 0.773438 -3.109375 0.515625 -3.796875 C 0.265625 -4.484375 0.0976562 -5.160156 0.015625 -5.828125 C -0.0546875 -6.515625 -0.03125 -7.21875 0.09375 -7.9375 C 0.21875 -8.65625 0.46875 -9.320312 0.84375 -9.9375 C 1.21875 -10.5625 1.722656 -11.085938 2.359375 -11.515625 C 2.992188 -11.953125 3.765625 -12.226562 4.671875 -12.34375 C 5.203125 -12.40625 5.742188 -12.390625 6.296875 -12.296875 C 6.847656 -12.210938 7.367188 -12.035156 7.859375 -11.765625 C 8.347656 -11.503906 8.769531 -11.160156 9.125 -10.734375 C 9.476562 -10.304688 9.734375 -9.78125 9.890625 -9.15625 L 8.421875 -8.984375 C 8.191406 -9.628906 7.863281 -10.097656 7.4375 -10.390625 C 7.019531 -10.679688 6.570312 -10.859375 6.09375 -10.921875 C 5.613281 -10.992188 5.164062 -11.003906 4.75 -10.953125 C 4.082031 -10.878906 3.488281 -10.632812 2.96875 -10.21875 C 2.445312 -9.800781 2.0625 -9.226562 1.8125 -8.5 C 1.5625 -7.78125 1.492188 -6.925781 1.609375 -5.9375 C 1.679688 -5.375 1.804688 -4.820312 1.984375 -4.28125 C 2.160156 -3.738281 2.410156 -3.257812 2.734375 -2.84375 C 3.054688 -2.425781 3.476562 -2.113281 4 -1.90625 C 4.53125 -1.695312 5.164062 -1.640625 5.90625 -1.734375 C 6.1875 -1.765625 6.535156 -1.835938 6.953125 -1.953125 C 7.378906 -2.078125 7.78125 -2.335938 8.15625 -2.734375 C 8.59375 -3.191406 8.863281 -3.675781 8.96875 -4.1875 C 9.082031 -4.707031 9.101562 -5.273438 9.03125 -5.890625 Z M 5.5 -5.46875 "/></g></g></g><g fill="#122620" fill-opacity="1"><g transform="translate(216.864897, 275.345567)"><g><path d="M 7.234375 -9.171875 C 6.890625 -10.003906 6.441406 -10.679688 5.890625 -11.203125 C 5.335938 -11.722656 4.710938 -12.050781 4.015625 -12.1875 C 3.316406 -12.332031 2.585938 -12.25 1.828125 -11.9375 C 1.066406 -11.625 0.484375 -11.171875 0.078125 -10.578125 C -0.316406 -9.984375 -0.523438 -9.304688 -0.546875 -8.546875 C -0.566406 -7.796875 -0.40625 -7.003906 -0.0625 -6.171875 C 0.269531 -5.347656 0.710938 -4.671875 1.265625 -4.140625 C 1.828125 -3.609375 2.460938 -3.269531 3.171875 -3.125 C 3.878906 -2.976562 4.613281 -3.0625 5.375 -3.375 C 6.132812 -3.6875 6.710938 -4.140625 7.109375 -4.734375 C 7.503906 -5.335938 7.707031 -6.019531 7.71875 -6.78125 C 7.738281 -7.550781 7.578125 -8.347656 7.234375 -9.171875 Z M 8.71875 -9.78125 C 8.90625 -9.332031 9.050781 -8.832031 9.15625 -8.28125 C 9.257812 -7.726562 9.289062 -7.15625 9.25 -6.5625 C 9.207031 -5.976562 9.070312 -5.40625 8.84375 -4.84375 C 8.625 -4.289062 8.269531 -3.773438 7.78125 -3.296875 C 7.289062 -2.828125 6.660156 -2.429688 5.890625 -2.109375 C 5.109375 -1.785156 4.378906 -1.617188 3.703125 -1.609375 C 3.023438 -1.609375 2.40625 -1.722656 1.84375 -1.953125 C 1.289062 -2.191406 0.796875 -2.503906 0.359375 -2.890625 C -0.078125 -3.273438 -0.453125 -3.695312 -0.765625 -4.15625 C -1.085938 -4.625 -1.34375 -5.082031 -1.53125 -5.53125 C -1.71875 -5.988281 -1.863281 -6.492188 -1.96875 -7.046875 C -2.070312 -7.609375 -2.101562 -8.175781 -2.0625 -8.75 C -2.019531 -9.332031 -1.882812 -9.898438 -1.65625 -10.453125 C -1.4375 -11.015625 -1.082031 -11.53125 -0.59375 -12 C -0.113281 -12.476562 0.515625 -12.878906 1.296875 -13.203125 C 2.066406 -13.523438 2.789062 -13.6875 3.46875 -13.6875 C 4.15625 -13.695312 4.773438 -13.582031 5.328125 -13.34375 C 5.890625 -13.113281 6.390625 -12.8125 6.828125 -12.4375 C 7.265625 -12.0625 7.640625 -11.640625 7.953125 -11.171875 C 8.273438 -10.703125 8.53125 -10.238281 8.71875 -9.78125 Z M 8.71875 -9.78125 "/></g></g></g></svg>